<svg width="15" height="15" viewBox="0 0 15 15" fill="none" xmlns="http://www.w3.org/2000/svg">
<path fill-rule="evenodd" clip-rule="evenodd" d="M6.67937 0.00228749C6.83873 0.00203806 7.01017 0.002115 7.19517 0.00219802L7.5001 0.00228749C9.94282 0.00228749 10.2323 0.0110562 11.197 0.0548997C12.089 0.0956932 12.5731 0.244761 12.8956 0.370001C13.3225 0.535844 13.6269 0.734092 13.9469 1.05434C14.2671 1.37459 14.4654 1.67959 14.6316 2.10658C14.7568 2.42874 14.906 2.91292 14.9466 3.80504C14.9905 4.7696 15 5.05935 15 7.50124C15 9.94313 14.9905 10.2329 14.9466 11.1974C14.9058 12.0896 14.7568 12.5737 14.6316 12.8959C14.4658 13.3229 14.2671 13.6269 13.9469 13.947C13.6267 14.2672 13.3227 14.4655 12.8956 14.6313C12.5735 14.7571 12.089 14.9058 11.197 14.9466C10.2325 14.9905 9.94282 15 7.5001 15C5.05718 15 4.76766 14.9905 3.80323 14.9466C2.91122 14.9054 2.4271 14.7564 2.10441 14.6311C1.67747 14.4653 1.37251 14.2671 1.0523 13.9468C0.732093 13.6266 0.53387 13.3223 0.367667 12.8951C0.242443 12.573 0.0932032 12.0888 0.0526055 11.1967C0.00876759 10.2321 0 9.94237 0 7.49895C0 5.05553 0.00876759 4.76731 0.0526055 3.80275C0.0933938 2.91064 0.242443 2.42645 0.367667 2.10392C0.533488 1.67692 0.732093 1.37192 1.0523 1.05167C1.37251 0.731424 1.67747 0.533175 2.10441 0.366951C2.42691 0.241139 2.91122 0.0924526 3.80323 0.0514684C4.6472 0.0133437 4.97427 0.00190624 6.67937 0V0.00228749ZM12.3836 1.52157C11.7775 1.52157 11.2858 2.0128 11.2858 2.61917C11.2858 3.22534 11.7775 3.71714 12.3836 3.71714C12.9897 3.71714 13.4815 3.22534 13.4815 2.61917C13.4815 2.01299 12.9897 1.52119 12.3836 1.52119V1.52157ZM2.80178 7.5031C2.80178 4.90815 4.90544 2.80425 7.50008 2.80425H7.49989C10.0945 2.80425 12.1976 4.90815 12.1976 7.5031C12.1976 10.0981 10.0947 12.201 7.50008 12.201C4.90544 12.201 2.80178 10.0981 2.80178 7.5031Z" fill="black"/>
<path fill-rule="evenodd" clip-rule="evenodd" d="M7.49976 4.45361C9.18389 4.45361 10.5493 5.81905 10.5493 7.50359C10.5493 9.18794 9.18389 10.5536 7.49976 10.5536C5.81545 10.5536 4.4502 9.18794 4.4502 7.50359C4.4502 5.81905 5.81545 4.45361 7.49976 4.45361V4.45361Z" fill="black"/>
</svg>
