<svg width="20" height="21" viewBox="0 0 20 21" fill="none" xmlns="http://www.w3.org/2000/svg">
<circle cx="9.5" cy="10.5" r="8.5" fill="black"/>
<path fill-rule="evenodd" clip-rule="evenodd" d="M0 10.0082C0 15.5355 4.47641 20.0175 10.0004 20.0175C15.5234 20.0175 20.0008 15.5355 20.0008 10.0082C20.0008 4.48098 15.5234 0 10.0004 0C4.47641 0 0 4.48098 0 10.0082ZM6.93534 18.6923C3.56438 17.3706 1.17568 14.0881 1.17568 10.246C1.17568 5.23548 5.23326 1.1758 10.2388 1.1758C15.2444 1.1758 19.302 5.23548 19.302 10.246C19.302 15.2555 15.2444 19.3163 10.2388 19.3163C9.30369 19.3163 8.40284 19.1748 7.55555 18.911C7.92403 18.3086 8.47675 17.3213 8.68134 16.5333C8.79167 16.1088 9.24585 14.3775 9.24585 14.3775C9.54149 14.9414 10.4049 15.4195 11.3239 15.4195C14.0565 15.4195 16.0263 12.9035 16.0263 9.77756C16.0263 6.78131 13.583 4.53868 10.4391 4.53868C6.5283 4.53868 4.4513 7.16723 4.4513 10.0284C4.4513 11.3577 5.15828 13.015 6.28943 13.5424C6.46189 13.6218 6.55401 13.5864 6.59364 13.4202C6.60578 13.3694 6.63812 13.2382 6.67686 13.0809C6.7338 12.8498 6.80457 12.5625 6.84536 12.3922C6.86679 12.3 6.85608 12.2217 6.78216 12.1317C6.40726 11.6772 6.1084 10.841 6.1084 10.0616C6.1084 8.06129 7.62196 6.12525 10.2003 6.12525C12.4272 6.12525 13.9858 7.6432 13.9858 9.81508C13.9858 12.2689 12.7475 13.9691 11.1365 13.9691C10.2474 13.9691 9.58113 13.2337 9.79429 12.33C9.88678 11.9404 10.0104 11.5397 10.1307 11.1501C10.3433 10.4614 10.5452 9.80727 10.5452 9.31017C10.5452 8.61337 10.1713 8.03234 9.39903 8.03234C8.48853 8.03234 7.75907 8.97356 7.75907 10.2353C7.75907 11.0382 8.03008 11.5817 8.03008 11.5817C8.03008 11.5817 7.13137 15.382 6.96748 16.0895C6.78538 16.8742 6.85608 17.9752 6.93534 18.6923Z" fill="white"/>
</svg>
